# MagicaVoxel @ Ephtracy

# material
mtllib wheel.mtl
usemtl palette

# normals
vn -1 0 0
vn 1 0 0
vn 0 0 1
vn 0 0 -1
vn 0 -1 0
vn 0 1 0

# texcoords
vt 0.978516 0.5
vt 0.994141 0.5

# verts
v -3 1 3.5
v -3 1 -4.5
v -3 2 -4.5
v -3 2 -5.5
v -3 3 5.5
v -3 3 3.5
v -3 3 2.5
v -3 3 -3.5
v -3 3 -5.5
v -3 3 -6.5
v -3 10 5.5
v -3 10 4.5
v -3 10 2.5
v -3 10 -3.5
v -3 10 -5.5
v -3 10 -6.5
v -3 11 4.5
v -3 11 3.5
v -3 11 -4.5
v -3 11 -5.5
v -3 12 3.5
v -3 12 -4.5
v -2 2 4.5
v -2 2 3.5
v -2 3 4.5
v -2 3 3.5
v 1 1 3.5
v 1 1 -4.5
v 1 2 4.5
v 1 2 3.5
v 1 2 -4.5
v 1 2 -5.5
v 1 3 5.5
v 1 3 4.5
v 1 3 2.5
v 1 3 -3.5
v 1 3 -5.5
v 1 3 -6.5
v 1 10 5.5
v 1 10 4.5
v 1 10 2.5
v 1 10 -3.5
v 1 10 -5.5
v 1 10 -6.5
v 1 11 4.5
v 1 11 3.5
v 1 11 -4.5
v 1 11 -5.5
v 1 12 3.5
v 1 12 -4.5
v -3 3 5.5
v -3 10 5.5
v 1 3 5.5
v 1 10 5.5
v -3 10 4.5
v -3 11 4.5
v -2 2 4.5
v -2 3 4.5
v 1 2 4.5
v 1 3 4.5
v 1 10 4.5
v 1 11 4.5
v -3 1 3.5
v -3 3 3.5
v -3 11 3.5
v -3 12 3.5
v -2 2 3.5
v -2 3 3.5
v 1 1 3.5
v 1 2 3.5
v 1 11 3.5
v 1 12 3.5
v -3 1 -4.5
v -3 2 -4.5
v -3 11 -4.5
v -3 12 -4.5
v 1 1 -4.5
v 1 2 -4.5
v 1 11 -4.5
v 1 12 -4.5
v -3 2 -5.5
v -3 3 -5.5
v -3 10 -5.5
v -3 11 -5.5
v 1 2 -5.5
v 1 3 -5.5
v 1 10 -5.5
v 1 11 -5.5
v -3 3 -6.5
v -3 10 -6.5
v 1 3 -6.5
v 1 10 -6.5
v -3 1 3.5
v 1 1 3.5
v -3 1 -4.5
v 1 1 -4.5
v -2 2 4.5
v 1 2 4.5
v -2 2 3.5
v 1 2 3.5
v -3 2 -4.5
v 1 2 -4.5
v -3 2 -5.5
v 1 2 -5.5
v -3 3 5.5
v 1 3 5.5
v -2 3 4.5
v 1 3 4.5
v -3 3 3.5
v -2 3 3.5
v -3 3 -5.5
v 1 3 -5.5
v -3 3 -6.5
v 1 3 -6.5
v -3 10 5.5
v 1 10 5.5
v -3 10 4.5
v 1 10 4.5
v -3 10 -5.5
v 1 10 -5.5
v -3 10 -6.5
v 1 10 -6.5
v -3 11 4.5
v 1 11 4.5
v -3 11 3.5
v 1 11 3.5
v -3 11 -4.5
v 1 11 -4.5
v -3 11 -5.5
v 1 11 -5.5
v -3 12 3.5
v 1 12 3.5
v -3 12 -4.5
v 1 12 -4.5

# faces
f 3/2/1 2/2/1 1/2/1
f 6/2/1 3/2/1 1/2/1
f 6/2/1 4/2/1 3/2/1
f 7/2/1 4/2/1 6/2/1
f 8/2/1 4/2/1 7/2/1
f 9/2/1 4/2/1 8/2/1
f 11/2/1 6/2/1 5/2/1
f 11/2/1 7/2/1 6/2/1
f 12/2/1 7/2/1 11/2/1
f 13/1/1 8/1/1 7/1/1
f 13/2/1 7/2/1 12/2/1
f 14/2/1 10/2/1 9/2/1
f 14/1/1 8/1/1 13/1/1
f 14/2/1 9/2/1 8/2/1
f 15/2/1 10/2/1 14/2/1
f 16/2/1 10/2/1 15/2/1
f 17/2/1 13/2/1 12/2/1
f 17/2/1 15/2/1 14/2/1
f 17/2/1 14/2/1 13/2/1
f 18/2/1 15/2/1 17/2/1
f 19/2/1 15/2/1 18/2/1
f 20/2/1 15/2/1 19/2/1
f 21/2/1 19/2/1 18/2/1
f 22/2/1 19/2/1 21/2/1
f 25/2/1 24/2/1 23/2/1
f 26/2/1 24/2/1 25/2/1
f 27/2/2 28/2/2 30/2/2
f 30/2/2 28/2/2 31/2/2
f 29/2/2 30/2/2 34/2/2
f 31/2/2 32/2/2 34/2/2
f 30/2/2 31/2/2 34/2/2
f 34/2/2 32/2/2 35/2/2
f 35/2/2 32/2/2 36/2/2
f 36/2/2 32/2/2 37/2/2
f 33/2/2 34/2/2 39/2/2
f 34/2/2 35/2/2 39/2/2
f 39/2/2 35/2/2 40/2/2
f 35/1/2 36/1/2 41/1/2
f 40/2/2 35/2/2 41/2/2
f 37/2/2 38/2/2 42/2/2
f 41/1/2 36/1/2 42/1/2
f 36/2/2 37/2/2 42/2/2
f 42/2/2 38/2/2 43/2/2
f 43/2/2 38/2/2 44/2/2
f 40/2/2 41/2/2 45/2/2
f 42/2/2 43/2/2 45/2/2
f 41/2/2 42/2/2 45/2/2
f 45/2/2 43/2/2 46/2/2
f 46/2/2 43/2/2 47/2/2
f 47/2/2 43/2/2 48/2/2
f 46/2/2 47/2/2 49/2/2
f 49/2/2 47/2/2 50/2/2
f 53/2/3 52/2/3 51/2/3
f 54/2/3 52/2/3 53/2/3
f 59/2/3 58/2/3 57/2/3
f 60/2/3 58/2/3 59/2/3
f 61/2/3 56/2/3 55/2/3
f 62/2/3 56/2/3 61/2/3
f 67/2/3 64/2/3 63/2/3
f 68/2/3 64/2/3 67/2/3
f 69/2/3 67/2/3 63/2/3
f 70/2/3 67/2/3 69/2/3
f 71/2/3 66/2/3 65/2/3
f 72/2/3 66/2/3 71/2/3
f 73/2/4 74/2/4 77/2/4
f 77/2/4 74/2/4 78/2/4
f 75/2/4 76/2/4 79/2/4
f 79/2/4 76/2/4 80/2/4
f 81/2/4 82/2/4 85/2/4
f 85/2/4 82/2/4 86/2/4
f 83/2/4 84/2/4 87/2/4
f 87/2/4 84/2/4 88/2/4
f 89/2/4 90/2/4 91/2/4
f 91/2/4 90/2/4 92/2/4
f 95/2/5 94/2/5 93/2/5
f 96/2/5 94/2/5 95/2/5
f 99/2/5 98/2/5 97/2/5
f 100/2/5 98/2/5 99/2/5
f 103/2/5 102/2/5 101/2/5
f 104/2/5 102/2/5 103/2/5
f 107/2/5 106/2/5 105/2/5
f 108/2/5 106/2/5 107/2/5
f 109/2/5 107/2/5 105/2/5
f 110/2/5 107/2/5 109/2/5
f 113/2/5 112/2/5 111/2/5
f 114/2/5 112/2/5 113/2/5
f 115/2/6 116/2/6 117/2/6
f 117/2/6 116/2/6 118/2/6
f 119/2/6 120/2/6 121/2/6
f 121/2/6 120/2/6 122/2/6
f 123/2/6 124/2/6 125/2/6
f 125/2/6 124/2/6 126/2/6
f 127/2/6 128/2/6 129/2/6
f 129/2/6 128/2/6 130/2/6
f 131/2/6 132/2/6 133/2/6
f 133/2/6 132/2/6 134/2/6
